<?xml version="1.0" standalone="no"?>
<!DOCTYPE svg PUBLIC "-//W3C//DTD SVG 20010904//EN"
 "http://www.w3.org/TR/2001/REC-SVG-20010904/DTD/svg10.dtd">
<svg version="1.0" xmlns="http://www.w3.org/2000/svg"
 width="500.000000pt" height="500.000000pt" viewBox="0 0 500.000000 500.000000"
 preserveAspectRatio="xMidYMid meet">

<g transform="translate(0.000000,500.000000) scale(0.100000,-0.100000)"
fill="#000000" stroke="none">
<path d="M2310 4483 c-227 -40 -370 -83 -525 -159 -82 -40 -126 -67 -270 -164
-27 -19 -102 -87 -165 -151 -545 -551 -634 -1398 -214 -2046 32 -48 62 -92 68
-98 6 -5 36 -41 68 -80 31 -38 67 -80 80 -92 l24 -23 22 157 c24 169 44 228
95 281 56 58 137 96 427 197 52 19 103 37 112 40 15 6 13 -4 -12 -64 -62 -151
-74 -213 -75 -376 0 -124 3 -158 18 -195 14 -32 21 -88 28 -195 10 -180 17
-222 37 -230 8 -3 16 -4 18 -2 2 1 -2 46 -8 99 -6 59 -7 114 -2 143 l9 46 84
-70 c95 -79 140 -131 171 -199 33 -72 36 -77 51 -77 20 0 13 40 -17 102 -30
63 -140 183 -221 242 -52 37 -64 53 -94 120 -34 75 -34 77 -33 216 1 122 4
152 28 230 38 127 74 202 110 231 17 14 48 39 68 56 l38 31 -3 171 -4 172 -46
46 c-48 49 -86 114 -108 187 -9 32 -22 50 -45 63 -28 17 -35 29 -49 91 -9 39
-21 77 -26 84 -6 6 -9 27 -7 45 3 29 7 33 37 36 18 2 38 -1 44 -7 20 -20 27
-11 27 37 0 38 13 74 69 189 38 78 79 170 91 206 l22 64 51 -49 c70 -67 169
-113 287 -133 116 -20 166 -43 219 -100 30 -33 41 -39 43 -27 5 24 37 -73 44
-133 l6 -50 42 3 c57 5 75 -16 57 -61 -7 -18 -19 -57 -26 -87 -18 -78 -24 -89
-55 -105 -20 -10 -29 -24 -34 -52 -9 -59 -50 -137 -98 -189 -41 -45 -43 -50
-55 -143 -7 -53 -15 -160 -19 -238 l-7 -141 32 -67 c19 -42 31 -83 31 -109 0
-40 -31 -115 -67 -165 l-18 -24 25 13 c144 76 176 125 166 253 -3 45 -9 97
-12 116 l-7 34 34 -7 c53 -10 76 -32 98 -90 32 -85 43 -207 31 -322 -13 -114
-42 -261 -69 -352 -17 -55 -18 -64 -5 -69 24 -9 31 5 58 107 41 153 59 277 59
405 0 112 -4 140 -39 263 -6 22 -5 22 97 -14 264 -91 326 -149 349 -325 6 -46
13 -164 17 -262 3 -97 8 -177 10 -177 15 0 123 93 199 171 126 130 199 232
281 389 131 249 183 468 183 764 0 169 -10 247 -52 411 -116 456 -447 857
-867 1052 -142 66 -158 73 -171 73 -6 0 -32 9 -58 19 -26 10 -110 31 -187 45
-119 22 -165 26 -305 25 -91 -1 -176 -4 -190 -6z m358 -133 c74 -11 171 -33
215 -48 73 -26 82 -31 81 -53 -2 -31 -73 -261 -84 -273 -5 -4 -23 3 -42 17
-18 14 -60 38 -94 55 -147 74 -298 85 -451 33 -113 -37 -181 -71 -228 -112
-20 -18 -37 -30 -39 -28 -2 2 -19 71 -39 153 l-35 148 74 34 c196 89 390 112
642 74z"/>
<path d="M2417 4323 c-4 -3 -7 -17 -7 -29 0 -18 -6 -23 -32 -26 -29 -3 -33 -7
-36 -35 -3 -32 -2 -33 32 -33 33 0 36 -2 36 -30 0 -28 3 -30 35 -30 32 0 35 2
35 30 0 28 3 30 35 30 33 0 35 2 35 35 0 33 -2 35 -35 35 -32 0 -35 2 -35 30
0 26 -4 30 -28 30 -16 0 -32 -3 -35 -7z"/>
<path d="M2813 1529 c-90 -44 -117 -161 -57 -236 23 -28 40 -39 65 -41 l34 -4
-21 24 c-34 36 -46 66 -46 114 0 56 33 115 81 142 33 20 34 22 11 22 -14 0
-44 -9 -67 -21z"/>
<path d="M1797 1103 c-12 -20 -167 -462 -167 -477 0 -14 28 -36 47 -36 27 0
49 43 108 210 67 188 91 230 131 230 46 0 45 -26 -7 -173 -27 -76 -49 -154
-49 -172 0 -71 71 -111 144 -81 34 14 40 14 68 0 35 -18 82 -13 110 13 17 15
19 15 37 -1 72 -66 193 10 236 149 21 64 26 69 49 52 17 -12 16 -16 -3 -75
-26 -75 -20 -107 23 -133 38 -23 58 -24 102 -3 31 15 37 15 74 0 54 -22 154
-20 205 3 36 16 42 16 64 3 35 -23 155 -26 174 -4 9 9 31 61 51 115 41 116 59
147 86 147 26 0 26 -20 -5 -110 -30 -89 -31 -100 -5 -133 27 -34 76 -43 124
-23 33 14 41 14 64 2 25 -14 26 -15 7 -21 -60 -20 -78 -30 -100 -57 -34 -40
-33 -82 4 -119 26 -25 37 -29 85 -29 50 0 60 4 91 32 19 18 43 56 52 83 16 44
25 53 73 77 70 36 117 81 145 142 25 53 24 71 -5 79 -21 5 -40 -12 -63 -59
-17 -33 -76 -89 -85 -80 -3 3 14 60 38 126 23 66 39 127 36 135 -8 23 -34 29
-60 15 -18 -9 -29 -9 -44 -1 -11 6 -36 11 -56 11 -55 0 -88 -35 -126 -139 -32
-85 -68 -141 -91 -141 -22 0 -20 34 5 103 33 90 33 121 2 152 -22 22 -32 24
-102 22 -56 -1 -79 -6 -85 -17 -5 -8 -28 -64 -50 -123 -43 -113 -76 -154 -102
-128 -9 9 -3 38 28 125 33 97 37 117 26 130 -19 23 -48 20 -65 -6 -8 -13 -29
-61 -46 -108 -32 -88 -70 -145 -70 -105 0 11 -14 49 -31 85 -28 60 -29 67 -16
90 17 30 8 65 -20 72 -37 10 -62 -11 -98 -81 -19 -39 -44 -75 -55 -81 -12 -6
-32 -35 -46 -65 -45 -94 -78 -80 -44 19 11 33 20 69 20 82 0 23 -45 68 -80 79
-11 3 -20 15 -20 25 0 25 -43 54 -68 45 -27 -8 -47 -57 -33 -83 21 -39 -75
-232 -115 -232 -25 0 -23 20 16 129 44 123 43 151 -6 151 -28 0 -37 -17 -89
-163 -25 -70 -59 -117 -86 -117 -17 0 -9 46 25 144 19 54 32 104 29 112 -7 19
-52 29 -65 16 -6 -6 -28 -57 -49 -113 -22 -56 -46 -113 -54 -126 -17 -25 -53
-31 -61 -10 -3 8 18 78 46 157 51 145 58 186 40 221 -17 31 -68 52 -109 45
-46 -8 -59 -8 -97 0 -18 3 -34 2 -37 -3z m1823 -247 c19 -23 -37 -166 -72
-186 -21 -11 -30 -12 -39 -3 -9 9 -5 30 16 90 16 43 32 86 37 96 11 21 41 22
58 3z m-819 -115 c15 -51 0 -81 -41 -81 -37 0 -47 16 -14 24 29 8 45 42 33 74
-5 13 -5 22 1 22 5 0 14 -17 21 -39z m702 -240 c-7 -28 -40 -54 -58 -48 -24
10 -18 35 13 51 37 21 51 20 45 -3z"/>
<path d="M1378 1065 c-9 -21 -8 -28 7 -45 31 -34 75 -20 75 25 0 48 -62 63
-82 20z"/>
<path d="M3058 1065 c-10 -22 -9 -29 9 -47 41 -40 100 2 73 52 -16 30 -67 27
-82 -5z"/>
<path d="M1335 918 c-8 -13 -32 -74 -52 -136 -35 -106 -37 -115 -22 -140 9
-16 31 -33 55 -41 36 -13 44 -12 86 7 37 16 53 31 77 74 34 58 39 93 16 102
-24 9 -42 -3 -56 -36 -27 -67 -89 -112 -102 -75 -2 6 11 56 29 109 38 108 42
143 18 152 -25 10 -32 7 -49 -16z"/>
<path d="M1503 860 c-16 -6 -23 -18 -23 -35 l0 -26 86 3 c69 2 89 7 98 20 8
13 7 21 -2 30 -15 15 -129 21 -159 8z"/>
</g>
</svg>
