<?xml version="1.0" standalone="no"?>
<!DOCTYPE svg PUBLIC "-//W3C//DTD SVG 20010904//EN"
 "http://www.w3.org/TR/2001/REC-SVG-20010904/DTD/svg10.dtd">
<svg version="1.0" xmlns="http://www.w3.org/2000/svg"
 width="500.000000pt" height="500.000000pt" viewBox="0 0 500.000000 500.000000"
 preserveAspectRatio="xMidYMid meet">

<g transform="translate(0.000000,500.000000) scale(0.100000,-0.100000)"
fill="#000000" stroke="none">
<path d="M1797 2733 c-12 -20 -167 -462 -167 -477 0 -14 28 -36 47 -36 27 0
49 43 108 210 67 188 91 230 131 230 46 0 45 -26 -7 -173 -27 -76 -49 -154
-49 -172 0 -71 71 -111 144 -81 34 14 40 14 68 0 35 -18 82 -13 110 13 17 15
19 15 37 -1 72 -66 193 10 236 149 21 64 26 69 49 52 17 -12 16 -16 -3 -75
-26 -75 -20 -107 23 -133 38 -23 58 -24 102 -3 31 15 37 15 74 0 54 -22 154
-20 205 3 36 16 42 16 64 3 35 -23 155 -26 174 -4 9 9 31 61 51 115 41 116 59
147 86 147 26 0 26 -20 -5 -110 -30 -89 -31 -100 -5 -133 27 -34 76 -43 124
-23 33 14 41 14 64 2 25 -14 26 -15 7 -21 -60 -20 -78 -30 -100 -57 -34 -40
-33 -82 4 -119 26 -25 37 -29 85 -29 50 0 60 4 91 33 19 17 43 55 52 82 16 44
25 53 73 77 70 36 117 81 145 142 25 53 24 71 -5 79 -21 5 -40 -12 -63 -59
-17 -33 -76 -89 -85 -80 -3 3 14 60 38 126 23 66 39 127 36 135 -8 23 -34 29
-60 15 -18 -9 -29 -9 -44 -1 -11 6 -36 11 -56 11 -55 0 -88 -35 -126 -139 -32
-85 -68 -141 -91 -141 -22 0 -20 34 5 103 33 90 33 121 2 152 -22 22 -32 24
-102 22 -56 -1 -79 -6 -85 -17 -5 -8 -28 -64 -50 -123 -43 -113 -76 -154 -102
-128 -9 9 -3 38 28 125 33 97 37 117 26 130 -19 23 -48 20 -65 -6 -8 -13 -29
-61 -46 -108 -32 -88 -70 -145 -70 -105 0 11 -14 49 -31 85 -28 60 -29 67 -16
90 17 30 8 65 -20 72 -37 10 -62 -11 -98 -81 -19 -39 -44 -75 -55 -81 -12 -6
-32 -35 -46 -65 -45 -94 -78 -80 -44 19 11 33 20 69 20 82 0 23 -45 68 -80 79
-11 3 -20 15 -20 25 0 25 -43 54 -68 45 -27 -8 -47 -57 -33 -83 21 -39 -75
-232 -115 -232 -25 0 -23 20 16 129 44 123 43 151 -6 151 -28 0 -37 -17 -89
-163 -25 -70 -59 -117 -86 -117 -17 0 -9 46 25 144 19 54 32 104 29 112 -7 19
-52 29 -65 16 -6 -6 -28 -57 -49 -113 -22 -56 -46 -113 -54 -126 -17 -25 -53
-31 -61 -10 -3 8 18 78 46 157 51 145 58 186 40 221 -17 31 -68 52 -109 45
-46 -8 -59 -8 -97 0 -18 3 -34 2 -37 -3z m1823 -247 c19 -23 -37 -166 -72
-186 -21 -11 -30 -12 -39 -3 -9 9 -5 30 16 90 16 43 32 86 37 96 11 21 41 22
58 3z m-819 -115 c15 -51 0 -81 -41 -81 -37 0 -47 16 -14 24 29 8 45 42 33 74
-5 13 -5 22 1 22 5 0 14 -17 21 -39z m702 -240 c-7 -28 -40 -54 -58 -48 -24
10 -18 35 13 51 37 21 51 20 45 -3z"/>
<path d="M1378 2695 c-9 -21 -8 -28 7 -45 31 -34 75 -20 75 25 0 48 -62 63
-82 20z"/>
<path d="M3058 2695 c-10 -22 -9 -29 9 -47 41 -40 100 2 73 52 -16 30 -67 27
-82 -5z"/>
<path d="M1335 2548 c-8 -13 -32 -74 -52 -136 -35 -106 -37 -115 -22 -140 9
-16 31 -33 55 -41 36 -13 44 -12 86 7 37 16 53 31 77 74 34 58 39 93 16 102
-24 9 -42 -3 -56 -36 -27 -67 -89 -112 -102 -75 -2 6 11 56 29 109 38 108 42
143 18 152 -25 10 -32 7 -49 -16z"/>
<path d="M1503 2490 c-16 -6 -23 -18 -23 -35 l0 -26 86 3 c69 2 89 7 98 20 8
13 7 21 -2 30 -15 15 -129 21 -159 8z"/>
</g>
</svg>
